<svg width="56" height="56" viewBox="0 0 56 56" fill="none" xmlns="http://www.w3.org/2000/svg">
<g clip-path="url(#clip0_7194_133060)">
<path d="M20.2585 3.00506L14.1512 12.4717L8.04955 3.00506C7.244 1.75389 5.86143 0.999756 4.37602 0.999756C1.95937 0.999756 -0.000230789 2.95936 -0.000230789 5.376V26.6859H5.21585V8.62106L10.0034 16.688C10.9575 18.0363 12.5058 18.8361 14.1569 18.8361C15.808 18.8361 17.3562 18.0363 18.3103 16.688L23.0979 8.62106V26.6859H28.314V5.376C28.3083 2.95936 26.3487 0.999756 23.9377 0.999756C22.4523 0.999756 21.0697 1.75389 20.2642 3.00506H20.2585Z" fill="#FF6D00"/>
<path d="M47.9497 31.2453L41.8424 40.7119L35.7351 31.2453C34.9296 29.9941 33.547 29.24 32.0616 29.24C29.6449 29.24 27.6853 31.1996 27.6853 33.6162V54.9262H32.9014V36.8613L37.689 44.9282C38.6431 46.2765 40.1913 47.0763 41.8424 47.0763C43.4935 47.0763 45.0418 46.2765 45.9959 44.9282L50.7835 36.8613V54.9262H55.9995V33.6162C55.9995 31.1996 54.0399 29.24 51.6233 29.24C50.1379 29.24 48.7553 29.9941 47.9497 31.2453Z" fill="#FF6D00"/>
<path d="M55.9995 6.26725V26.6859H50.7834V6.76429C50.7834 6.76429 40.5684 23.6066 40.5684 23.6123C40.1342 24.3036 39.7057 24.8635 39.2601 25.3034C38.9801 25.5776 38.7002 25.8118 38.4031 26.0004C37.6376 26.4917 36.792 26.7031 35.7694 26.7031C35.7179 26.7031 35.6665 26.7031 35.6151 26.7031C32.9128 26.6231 30.7247 24.515 30.519 21.8469C30.519 21.8469 30.5076 21.7041 30.5076 21.6413C30.5076 21.5727 30.5076 21.5041 30.5076 21.4356V8.85529C30.5076 7.88978 31.2903 7.10708 32.2558 7.10708H33.9754C34.941 7.10708 35.7237 7.88978 35.7237 8.85529V20.8928L45.933 4.09627C46.6414 2.96507 47.3327 2.1938 48.0983 1.70247C48.8638 1.21114 49.7094 0.999756 50.732 0.999756C53.64 0.999756 55.9995 3.35927 55.9995 6.26725Z" fill="#FF6D00"/>
<path d="M35.7179 4.47352V2.74245C35.7179 1.78009 34.9378 0.999948 33.9754 0.999948H32.2443C31.282 0.999948 30.5018 1.78009 30.5018 2.74245V4.47352C30.5018 5.43588 31.282 6.21602 32.2443 6.21602H33.9754C34.9378 6.21602 35.7179 5.43588 35.7179 4.47352Z" fill="#FF6D00"/>
<path d="M5.21022 32.7189V30.9879C5.21022 30.0255 4.43007 29.2454 3.46772 29.2454H1.73664C0.774285 29.2454 -0.00585938 30.0255 -0.00585938 30.9879V32.7189C-0.00585937 33.6813 0.774285 34.4614 1.73664 34.4614H3.46772C4.43007 34.4614 5.21022 33.6813 5.21022 32.7189Z" fill="#FF6D00"/>
<path d="M5.21559 41.3913V39.6602C5.21559 38.6979 4.43545 37.9177 3.47309 37.9177H1.74202C0.77966 37.9177 -0.000486374 38.6979 -0.000486374 39.6602V41.3913C-0.000486374 42.3537 0.77966 43.1338 1.74202 43.1338H3.47309C4.43545 43.1338 5.21559 42.3537 5.21559 41.3913Z" fill="#FF6D00"/>
<path d="M5.21559 53.1892V51.4581C5.21559 50.4957 4.43544 49.7156 3.47309 49.7156H1.74201C0.779655 49.7156 -0.000490665 50.4957 -0.000490665 51.4581V53.1892C-0.000490665 54.1515 0.779655 54.9317 1.74201 54.9317H3.47309C4.43544 54.9317 5.21559 54.1515 5.21559 53.1892Z" fill="#FF6D00"/>
<path d="M6.10133 30.9937V32.7134C6.10133 33.6789 6.88403 34.4616 7.84955 34.4616H19.6643C20.0013 34.4616 20.2756 34.7358 20.2756 35.0729V37.3124C20.2756 37.6495 20.0013 37.9237 19.6643 37.9237H7.84955C6.88403 37.9237 6.10133 38.7064 6.10133 39.672V41.3916C6.10133 42.3571 6.88403 43.1398 7.84955 43.1398H19.6643C20.0013 43.1398 20.2756 43.414 20.2756 43.7511V49.11C20.2756 49.4471 20.0013 49.7213 19.6643 49.7213H7.84955C6.88403 49.7213 6.10133 50.504 6.10133 51.4695V53.1892C6.10133 54.1547 6.88403 54.9374 7.84955 54.9374H21.1154C23.5321 54.9374 25.4917 52.9778 25.4917 50.5612V33.6275C25.4917 31.2108 23.5321 29.2512 21.1154 29.2512H7.84955C6.88403 29.2512 6.10133 30.0339 6.10133 30.9994V30.9937Z" fill="#FF6D00"/>
</g>
<defs>
<clipPath id="clip0_7194_133060">
<rect width="56" height="56" fill="white"/>
</clipPath>
</defs>
</svg>
